<svg xmlns="http://www.w3.org/2000/svg" viewBox="0 0 1863.03 316.36"><defs><style>.cls-1{fill:#fff;}</style></defs><title>blancAsset 1</title><g id="Layer_2" data-name="Layer 2"><g id="Layer_1-2" data-name="Layer 1"><g id="Layer_2-2" data-name="Layer 2"><g id="DuraClim_-_Logov2-blanc-bleu_Image" data-name="DuraClim - Logov2-blanc-bleu Image"><path class="cls-1" d="M90,309.58c-32.07.12-58.72-.4-85.35.9-3.51.17-4.8,0-4.17-4.36a235.85,235.85,0,0,0,2.35-33.83q0-113.47,0-226.94A228.09,228.09,0,0,0,.23,10.52C-.2,7.73-.46,5.82,3.57,6,48,7.6,92.51,6.62,137,7.08c28.58.3,55.85,6.32,80.3,21.9,27.27,17.38,43.32,42.93,50.95,73.73,10.67,43.06,9.79,85.91-7.17,127.35C242.58,275.26,208,300.3,160,307.45,134.93,311.18,109.73,308.85,90,309.58ZM75.11,158v83.45c0,2.67-.18,4.74,3.75,4.64,18-.46,36,.54,53.93-.68,29.81-2,50.19-16.91,60.36-45.05,8.83-24.45,9.32-49.66,3.94-74.77-7.49-34.94-26.37-51.16-61.89-54.42-18.44-1.69-37-.31-55.42-.82C76,70.23,75,71.27,75,75,75.18,102.68,75.11,130.33,75.11,158Z"></path><path class="cls-1" d="M1175.58,316.36c-28.05-.29-56.53-5.79-82.32-21.44-29-17.61-47.15-43.73-56.64-75.78-13.85-46.79-13.28-93.38,6.1-138.65,18.81-43.94,53.29-68.65,99.68-77.12,30.8-5.62,61.48-4.77,90.9,6.91,38.31,15.21,61.87,43.6,71.85,83.48.74,3,.74,4.17-2.9,4.83q-33.36,6.12-66.59,12.93c-3.77.77-4.92.27-5.89-3.64-3.87-15.63-11.08-29.22-25.64-37.66-29.55-17.13-70.19-5.32-87.34,25.37-9.07,16.22-12.38,34-13.29,52.22-1.2,24,1.16,47.55,12.37,69.43,18.38,35.85,57.37,41.82,83.4,31.1,19.54-8,30.45-23.06,33.54-43.73.7-4.69,2.07-5.89,6.89-5.11,21.67,3.51,43.42,6.57,65.13,9.8,2.43.36,5.13.14,4.16,4.19-5.41,22.7-13.12,44.27-28.73,62.3-17.15,19.81-39.17,30.94-64.33,36.56C1203.23,315.18,1190.32,316.32,1175.58,316.36Z"></path><path class="cls-1" d="M779.3,146.11C788.19,114.22,810,96,840.41,87.75a190.94,190.94,0,0,1,105,.95c29.81,8.67,46.08,30.46,46.56,61.73.55,36.32.17,72.65.34,109,.07,15.64.45,31.29,2.41,46.84.29,2.3-.07,3.25-2.71,3.23q-32.25-.15-64.49,0c-2.7,0-3.45-1-3.35-3.51.16-4,0-8,0-12.37a12.09,12.09,0,0,0-2.09.92A98.35,98.35,0,0,1,869,314c-18.5,1.27-37,1.11-54.75-5.39-27.55-10.06-42.92-32.55-43.47-61.8-.59-31.74,15.38-51.85,43-64.5,18.4-8.42,38-12.05,57.91-14,15.26-1.5,30.55-2.13,45.87-2.31,6.72-.08,6.71-.23,6.69-6.92-.06-15.93-5.92-23.26-21.65-26.06a72.4,72.4,0,0,0-29.76.73c-11.13,2.68-18.91,9.42-22.91,20.25-.8,2.18-1.39,3.58-4.44,3.06C823.53,153.26,801.52,149.74,779.3,146.11Zm135.43,66.36c-11.16.73-23.16.87-35,2.93-11.3,2-22.79,3.69-31.73,11.89-5.84,5.36-9,11.92-7.33,20.08,1.66,8.34,7.37,12.84,15.06,14.92,17.16,4.66,33.38,1.28,48.53-7.16,13.24-7.37,20.12-18.91,20-34.35-.06-8.66,0-8.66-9.54-8.32Z"></path><path class="cls-1" d="M1625.31,143.63c23-23.28,50-28.17,80-20.5,12.25,3.13,21.86,10.3,27.66,22.24,8.67-8.09,17.46-15.14,28.12-19.36,20.73-8.21,41.92-9,63-2,20.78,6.85,31,22.9,34.94,43.6a125.85,125.85,0,0,1,2,23.34c0,30.16,0,60.32.18,90.48.06,7.46.94,14.94,1.74,22.38.3,2.82-.21,3.75-3.22,3.72q-27.74-.19-55.49,0c-2.52,0-3.58-.44-3.18-3.28,3.22-23.21,1.62-46.57,1.93-69.87.16-11.83,0-23.66,0-35.49,0-1.83,0-3.67-.11-5.5-1.13-20.19-16.15-29.51-34.86-21.63-14,5.87-25.07,22.57-25,37.73.07,25,.09,50,.37,75a194.06,194.06,0,0,0,1.65,19.38c.31,2.78-.34,3.72-3.33,3.7-18.5-.13-37-.08-55.49,0-2,0-3.54.19-3.14-2.78,3.19-24,2-48.21,2.19-72.35q.14-19.74-.3-39.47c-.39-18.11-13.13-27.25-30.48-21.76-15.11,4.78-23.11,16.62-28.85,30.4-.54,1.3-.3,3-.3,4.44,0,22.66-.2,45.33.08,68,.12,10,1.07,19.93,1.91,29.87.23,2.7.05,3.74-3.06,3.72q-27.49-.21-55,0c-2.47,0-3.59-.32-3.13-3.26,2.06-13.2,2.05-26.55,2.11-39.85q.21-47.24,0-94.48c-.06-14.14.2-28.32-2.06-42.36-.36-2.23.24-3,2.5-2.95q26.75.09,53.49,0c2.39,0,3.24.76,3.18,3.15C1625.22,132.8,1625.31,137.89,1625.31,143.63Z"></path><path class="cls-1" d="M463.89,284.45c-6.47,5.44-12.23,10.41-18.54,14.67-19.65,13.27-41.53,17.11-64.72,15.66-12.43-.78-24.4-3.37-35.41-9.38C324.39,294,314,275.87,310.91,252.83c-1.51-11.46-.94-23-1-34.44-.13-30.33,0-60.65-.3-91A269.2,269.2,0,0,0,307.25,92c-.5-3.46.15-4.64,3.9-4.61q33.49.24,67,0c3.74,0,4.34,1.23,4,4.62-4.07,43.39-1.74,86.88-2.28,130.34-.36,29.25,21.9,35.42,40.7,30.22,19.29-5.33,32.13-18.75,42.57-35,1-1.57.72-3.21.71-4.83,0-29,.08-58-.27-87A243.87,243.87,0,0,0,461.2,92c-.55-3.6.41-4.55,4-4.53q33.24.23,66.49,0c4.14,0,4.65,1.44,4.14,5-2,13.7-2.42,27.53-2.48,41.34-.19,41.16-.09,82.32,0,123.48,0,16.15.31,32.3,2.6,48.33.38,2.69,0,3.84-3.18,3.82q-32.74-.19-65.49,0c-2.59,0-3.48-.69-3.42-3.35C464,299.09,463.89,292.17,463.89,284.45Z"></path><path class="cls-1" d="M646.75,114.58c12.15-13.88,26.15-23.88,43.81-28.1,20.61-4.92,41.24-4,61.87.34,3.25.68,3,2.12,2.33,4.41-5.23,19.41-10.55,38.81-15.53,58.29-.91,3.55-2.33,3.51-5.12,2.66-9.87-3-19.85-5.53-30.27-5.8-34.49-.88-56.8,20-57,54.37-.17,31-1,62,1.2,92.89.29,4.15.58,8.31,1.19,12.42.38,2.55-.11,3.43-2.88,3.42-23-.1-46,0-69-.06-1.67,0-3.19.29-2.86-2.55,4.24-36.35,2-72.86,2.4-109.3.28-26.15.16-52.31-.15-78.46-.11-9.3-1.16-18.59-2.06-27.86-.29-3,.53-3.74,3.38-3.73q32.48.12,65,0c2.82,0,3.78.89,3.72,3.72C646.65,99,646.75,106.8,646.75,114.58Z"></path><path class="cls-1" d="M1378,309.42c-11,0-22-.09-33,.06-3.32,0-5,0-4.33-4.41,2.4-16.68,2.31-33.52,2.29-50.34q-.14-108.22-.15-216.43a222.66,222.66,0,0,0-2.09-27.86c-.31-2.47-.09-3.5,2.79-3.49q34.74.15,69.48,0c2.92,0,3.28,1.17,3,3.56-3.13,24.51-2.67,49.16-2.69,73.79q-.07,81.23,0,162.45c0,19.31.25,38.62,2.67,57.82.47,3.74-.31,5.09-4.46,5C1400.38,309.21,1389.21,309.42,1378,309.42Z"></path><path class="cls-1" d="M1493,309.42h-34c-1.9,0-3.84.62-3.39-2.9,3.39-26.2,2.39-52.52,2.39-78.85q0-56.49-.36-113a221,221,0,0,0-1.89-23.37c-.3-2.79.15-3.8,3.18-3.79q34.49.15,69,0c2.73,0,3.4.81,3.16,3.46-5.21,55.69-1.93,111.53-2.58,167.3a310,310,0,0,0,2.56,46.31c.53,3.84-.51,5-4.54,4.92C1515.32,309.22,1504.15,309.42,1493,309.42Z"></path><path class="cls-1" d="M1493.51,61.42c-11,0-22-.08-33,0-3,0-4.41-.37-4.36-4,.22-15.48.19-31,0-46.44,0-3.38,1-4.16,4.25-4.14q33,.19,65.92,0c2.89,0,4.05.51,4,3.77q-.27,23.47,0,46.94c0,3.14-.89,3.89-3.92,3.84C1515.49,61.31,1504.5,61.42,1493.51,61.42Z"></path><path class="cls-1" d="M1833.82,50.37c10.55,8.49,18,19.42,24.36,31.18,1.24,2.28,2.38,4.62,3.57,6.93l-1,.85c-4.09-3.6-8.46-6.93-12.24-10.83-18.87-19.51-42.07-24.77-68.08-21.18-1.79.25-3.62.17-5.43.25.38-1.91,2.85-.63,3.62-2.66a36.16,36.16,0,0,0-4.46-1.56q-31-6.57-62-13.08c-2.53-.54-5.41-.64-6.47-3.77a78.34,78.34,0,0,1,17.43-4.92c1,1.08,1.51.57,1.92-.49l2-.6c1,1.19,1.55.64,2-.5l3-.62a95.11,95.11,0,0,0,9.12,2.91c18.86,4.07,37.68,8.41,56.67,11.83C1809.79,46.27,1821.4,50.72,1833.82,50.37Z"></path><path class="cls-1" d="M1704,74.44a8.71,8.71,0,0,1-5.59,1.34c-.47-2.21-1.75-3.22-4.08-3.64-5.2-.93-10.32-2.29-15.5-3.39q-43.41-9.16-86.85-18.23c-2-.41-4.51-1.15-5.13,2.14A54.12,54.12,0,0,1,1575.8,39.4a7,7,0,0,1,5.26-1c6.42,1.73,13.41,1,19.38,4.65,1.26.76,2.64,1.47,4.24,1L1607,45c2.58,2.15,5.44,3.39,8.88,2.81a3.7,3.7,0,0,1,3.12.36c.44,1.06,1,1.53,1.94.45L1623,49c1.77,2.13,3.83,1.52,5.91.62l2.09.28c.93,2.14,2.84,1.31,4.37,1.35,3.29.08,6.77-.75,9.86,0,22.92,5.8,46.19,10,69.27,15,1.77.39,4.26.3,4.86,1.84,1,2.56-2.91,1.47-3.36,3.35l-2.07.6c-1-1.14-1.51-.6-1.93.48l-2.06.57c-.87-1.15-1.46-.74-1.93.35l-2.1.58C1705,73,1704.44,73.41,1704,74.44Z"></path><path class="cls-1" d="M1833.82,50.37c-12.42.35-24-4.1-36-6.26-19-3.42-37.8-7.76-56.67-11.83a95.11,95.11,0,0,1-9.12-2.91c27.25-7,54.38-10.42,80.46,4.07C1820.45,37.88,1828,43.16,1833.82,50.37Z"></path><path class="cls-1" d="M1716,71.47c.45-1.88,4.36-.8,3.36-3.35-.6-1.54-3.09-1.46-4.86-1.84-23.08-5-46.35-9.18-69.27-15-3.09-.78-6.56,0-9.86,0-1.53,0-3.45.79-4.37-1.35,16.24,0,32.07-3.09,47.87-6.35.19,3.29,3,3.24,5.08,3.69,19.24,4.07,38.51,8,57.76,12.08,2.24.47,5.35,0,5.31,3.8A247.75,247.75,0,0,1,1716,71.47Z"></path><path class="cls-1" d="M1747,63.15c0-3.78-3.07-3.33-5.31-3.8-19.25-4.06-38.51-8-57.76-12.08-2.12-.45-4.89-.4-5.08-3.69a38.68,38.68,0,0,1,11.39-2.67c1.18.44,2.23.48,2.78-.94a8.93,8.93,0,0,1,5-1.53c1,1.27,1.58.69,2-.49a13.85,13.85,0,0,1,5.65-1.44c1.06,3.13,3.94,3.24,6.47,3.77,20.68,4.38,41.37,8.69,62,13.08a36.16,36.16,0,0,1,4.46,1.56c-.77,2-3.24.75-3.62,2.66a7,7,0,0,1-4.08.64c-.88-1.23-1.49-.83-2,.33Z"></path><path class="cls-1" d="M1586.84,52.66c.62-3.29,3.17-2.55,5.13-2.14q43.44,9,86.85,18.23c5.17,1.09,10.3,2.46,15.5,3.39,2.33.42,3.6,1.43,4.08,3.64l-.05.05a1.46,1.46,0,0,0-2.37.55l-3.1.64c-.92-1.1-1.46-.57-1.9.44l-2.14.48c-1.47-.94-2.82-1.16-3.84.62l-2.16.38c-1.11-1.06-2.49-.43-3.74-.6a32.58,32.58,0,0,0-7.73-3c-17.32-3.54-34.58-7.46-52-10.61-7.7-1.39-15.16-4.93-23.3-3.45C1592.44,59,1589.66,55.82,1586.84,52.66Z"></path><path class="cls-1" d="M1596.09,61.28c8.14-1.48,15.6,2.06,23.3,3.45,17.39,3.14,34.65,7.06,52,10.61a32.57,32.57,0,0,1,7.73,3l-.13,1.23-2.14.34c-2.07-.82-4.12-1.39-5.82.74l-2.17.32c-3.66-.89-7.3-1.47-10.82.55h-2c-3.53-2.14-7.18-1.43-10.84-.46-1.75,0-3.52.17-5.16-.64-4.84-1.61-9.63-3.43-14.85-3.33L1623,76.5a3.82,3.82,0,0,0-4.55-1.74L1616,73.57c-.43-1.17-1.29-1.31-2.35-1l-1.66-.86c-.32-1.3-1.18-1.5-2.31-1.15C1604.83,67.95,1599.92,65.39,1596.09,61.28Z"></path><path class="cls-1" d="M1604.68,44a5.18,5.18,0,0,1-4.24-1c-6-3.62-13-2.92-19.38-4.65a7,7,0,0,0-5.26,1,45,45,0,0,1-10.23-17.19C1577.33,31.9,1591.39,37.26,1604.68,44Z"></path><path class="cls-1" d="M1625.14,77.12c5.22-.09,10,1.72,14.85,3.33C1634.75,80.65,1629.92,79,1625.14,77.12Z"></path><path class="cls-1" d="M1645.15,81.09c3.66-1,7.31-1.69,10.84.46A27.63,27.63,0,0,1,1645.15,81.09Z"></path><path class="cls-1" d="M1658,81.52c3.51-2,7.16-1.44,10.82-.55A30.93,30.93,0,0,1,1658,81.52Z"></path><path class="cls-1" d="M1615.84,47.76c-3.44.58-6.3-.66-8.88-2.81C1610.18,45.08,1613,46.46,1615.84,47.76Z"></path><path class="cls-1" d="M1628.88,49.64c-2.09.91-4.14,1.52-5.91-.62C1625,48.83,1627,48.63,1628.88,49.64Z"></path><path class="cls-1" d="M1671,80.65c1.7-2.13,3.75-1.56,5.82-.74A9,9,0,0,1,1671,80.65Z"></path><path class="cls-1" d="M1618.44,74.75A3.82,3.82,0,0,1,1623,76.5C1621.15,76.76,1619.85,75.6,1618.44,74.75Z"></path><path class="cls-1" d="M1685,78.56c1-1.78,2.38-1.56,3.84-.62A4.1,4.1,0,0,1,1685,78.56Z"></path><path class="cls-1" d="M1679,79.57l.13-1.23c1.25.17,2.63-.46,3.74.6A4.49,4.49,0,0,1,1679,79.57Z"></path><path class="cls-1" d="M1620.91,48.57c-.94,1.08-1.51.61-1.94-.45A1.62,1.62,0,0,1,1620.91,48.57Z"></path><path class="cls-1" d="M1729,30c-.41,1.13-1,1.69-2,.5A1.55,1.55,0,0,1,1729,30Z"></path><path class="cls-1" d="M1769,58.54c.48-1.16,1.09-1.56,2-.33A1.49,1.49,0,0,1,1769,58.54Z"></path><path class="cls-1" d="M1725,31.09c-.42,1-1,1.56-1.92.49A1.44,1.44,0,0,1,1725,31.09Z"></path><path class="cls-1" d="M1700,37.93c-.41,1.19-1,1.77-2,.49A1.63,1.63,0,0,1,1700,37.93Z"></path><path class="cls-1" d="M1693,40c-.55,1.41-1.6,1.38-2.78.94A2.52,2.52,0,0,1,1693,40Z"></path><path class="cls-1" d="M1691,77.46c.43-1,1-1.53,1.9-.44A1.45,1.45,0,0,1,1691,77.46Z"></path><path class="cls-1" d="M1696,76.38a1.46,1.46,0,0,1,2.37-.55A2,2,0,0,1,1696,76.38Z"></path><path class="cls-1" d="M1704,74.44c.45-1,1-1.45,1.9-.38A1.5,1.5,0,0,1,1704,74.44Z"></path><path class="cls-1" d="M1708,73.48c.47-1.09,1.06-1.5,1.93-.35A1.4,1.4,0,0,1,1708,73.48Z"></path><path class="cls-1" d="M1613.65,72.6c1.06-.34,1.91-.2,2.35,1A2.19,2.19,0,0,1,1613.65,72.6Z"></path><path class="cls-1" d="M1712,72.55c.41-1.08,1-1.62,1.93-.48A1.57,1.57,0,0,1,1712,72.55Z"></path><path class="cls-1" d="M1609.67,70.59c1.13-.35,2-.15,2.31,1.15A2.62,2.62,0,0,1,1609.67,70.59Z"></path></g></g></g></g></svg>